<svg width="71" height="18" viewBox="0 0 71 18" fill="none" xmlns="http://www.w3.org/2000/svg">
<path d="M22.5745 12.3649C22.5119 12.3649 22.4586 12.343 22.4148 12.2992C22.3709 12.2553 22.349 12.2021 22.349 12.1394V6.01289C22.349 5.95024 22.3709 5.897 22.4148 5.85315C22.4586 5.80929 22.5119 5.78737 22.5745 5.78737H23.4484C23.5111 5.78737 23.5643 5.80929 23.6081 5.85315C23.652 5.897 23.6739 5.95024 23.6739 6.01289V11.2467H26.6526C26.7215 11.2467 26.7779 11.2687 26.8218 11.3125C26.8656 11.3564 26.8875 11.4127 26.8875 11.4817V12.1394C26.8875 12.2021 26.8656 12.2553 26.8218 12.2992C26.7779 12.343 26.7215 12.3649 26.6526 12.3649H22.5745ZM29.1058 12.4589C28.7801 12.4589 28.4857 12.3963 28.2226 12.271C27.9595 12.1394 27.7496 11.9671 27.593 11.7542C27.4427 11.5349 27.3675 11.2906 27.3675 11.0212C27.3675 10.5827 27.5429 10.2351 27.8937 9.97821C28.2508 9.71511 28.7206 9.53971 29.3032 9.45201L30.5905 9.26408V9.06675C30.5905 8.80365 30.5247 8.60006 30.3932 8.45598C30.2616 8.3119 30.0361 8.23986 29.7166 8.23986C29.4911 8.23986 29.3063 8.28684 29.1622 8.38081C29.0244 8.46851 28.921 8.58753 28.8521 8.73788C28.802 8.81931 28.73 8.86003 28.636 8.86003H27.8937C27.8248 8.86003 27.7715 8.84124 27.734 8.80365C27.7026 8.76606 27.687 8.71595 27.687 8.65331C27.6932 8.55308 27.734 8.43092 27.8091 8.28684C27.8843 8.14276 28.0033 8.00495 28.1662 7.8734C28.3291 7.73558 28.5389 7.61969 28.7958 7.52572C29.0526 7.43176 29.3627 7.38478 29.726 7.38478C30.1207 7.38478 30.4527 7.43489 30.722 7.53512C30.9977 7.62909 31.2169 7.75751 31.3798 7.92038C31.5427 8.08325 31.6617 8.27431 31.7369 8.49357C31.812 8.71282 31.8496 8.9446 31.8496 9.18891V12.1394C31.8496 12.2021 31.8277 12.2553 31.7839 12.2992C31.74 12.343 31.6868 12.3649 31.6241 12.3649H30.863C30.7941 12.3649 30.7377 12.343 30.6939 12.2992C30.6563 12.2553 30.6375 12.2021 30.6375 12.1394V11.7729C30.556 11.892 30.4464 12.0047 30.3086 12.1112C30.1708 12.2115 30.0016 12.296 29.8012 12.3649C29.607 12.4276 29.3752 12.4589 29.1058 12.4589ZM29.4253 11.5662C29.6446 11.5662 29.8419 11.5192 30.0173 11.4253C30.199 11.3313 30.3399 11.1872 30.4401 10.993C30.5466 10.7926 30.5999 10.542 30.5999 10.2413V10.044L29.6602 10.1943C29.2906 10.2507 29.015 10.3415 28.8333 10.4668C28.6517 10.5921 28.5608 10.7456 28.5608 10.9273C28.5608 11.0651 28.6016 11.1841 28.683 11.2843C28.7707 11.3783 28.8803 11.4503 29.0119 11.5004C29.1434 11.5443 29.2812 11.5662 29.4253 11.5662ZM34.9062 12.4589C34.5303 12.4589 34.2077 12.415 33.9384 12.3273C33.6753 12.2396 33.4591 12.13 33.29 11.9985C33.1209 11.8669 32.9956 11.7354 32.9141 11.6038C32.8327 11.4723 32.7889 11.3626 32.7826 11.2749C32.7763 11.206 32.7951 11.1528 32.839 11.1152C32.8891 11.0713 32.9423 11.0494 32.9987 11.0494H33.741C33.7661 11.0494 33.788 11.0525 33.8068 11.0588C33.8256 11.0651 33.8507 11.0839 33.882 11.1152C33.9634 11.1841 34.048 11.2561 34.1357 11.3313C34.2297 11.4065 34.3393 11.4723 34.4646 11.5286C34.5899 11.5788 34.7465 11.6038 34.9344 11.6038C35.1787 11.6038 35.3823 11.5568 35.5452 11.4629C35.7143 11.3626 35.7989 11.2217 35.7989 11.04C35.7989 10.9085 35.7613 10.802 35.6861 10.7205C35.6172 10.6391 35.4857 10.5671 35.2915 10.5044C35.0973 10.4355 34.8216 10.3635 34.4646 10.2883C34.1138 10.2069 33.8225 10.1035 33.5907 9.97821C33.3589 9.85293 33.1866 9.69632 33.0739 9.50839C32.9611 9.32046 32.9048 9.10121 32.9048 8.85063C32.9048 8.60632 32.9768 8.37454 33.1209 8.15529C33.2712 7.92977 33.4905 7.74498 33.7786 7.6009C34.0731 7.45682 34.4364 7.38478 34.8686 7.38478C35.2069 7.38478 35.5013 7.42863 35.7519 7.51633C36.0025 7.59776 36.2092 7.70113 36.3721 7.82641C36.5412 7.9517 36.6696 8.08012 36.7573 8.21167C36.845 8.33696 36.892 8.44658 36.8983 8.54055C36.9045 8.60946 36.8857 8.66583 36.8419 8.70969C36.798 8.74727 36.7479 8.76606 36.6915 8.76606H35.9962C35.9649 8.76606 35.9367 8.7598 35.9116 8.74727C35.8866 8.73474 35.8615 8.71908 35.8365 8.70029C35.7676 8.63765 35.6924 8.57187 35.6109 8.50296C35.5295 8.43405 35.4293 8.37454 35.3103 8.32443C35.1975 8.26805 35.0472 8.23986 34.8592 8.23986C34.6212 8.23986 34.4395 8.29311 34.3142 8.3996C34.1889 8.49983 34.1263 8.62825 34.1263 8.78486C34.1263 8.89135 34.1545 8.98532 34.2109 9.06675C34.2735 9.14193 34.3957 9.21397 34.5773 9.28287C34.759 9.35178 35.0346 9.42382 35.4042 9.49899C35.8239 9.57416 36.1559 9.68692 36.4003 9.83727C36.6508 9.98135 36.8262 10.1505 36.9265 10.3447C37.033 10.5326 37.0862 10.7425 37.0862 10.9742C37.0862 11.2561 37.0016 11.5098 36.8325 11.7354C36.6696 11.9609 36.4253 12.1394 36.0996 12.271C35.7801 12.3963 35.3823 12.4589 34.9062 12.4589ZM38.2911 12.3649C38.2284 12.3649 38.1752 12.343 38.1313 12.2992C38.0875 12.2553 38.0656 12.2021 38.0656 12.1394V5.91892C38.0656 5.85628 38.0875 5.80303 38.1313 5.75918C38.1752 5.71533 38.2284 5.6934 38.2911 5.6934H39.071C39.1336 5.6934 39.1869 5.71533 39.2307 5.75918C39.2746 5.80303 39.2965 5.85628 39.2965 5.91892V12.1394C39.2965 12.2021 39.2746 12.2553 39.2307 12.2992C39.1869 12.343 39.1336 12.3649 39.071 12.3649H38.2911ZM42.6478 12.4589C41.9524 12.4589 41.4012 12.2584 40.994 11.8575C40.5868 11.4566 40.3675 10.8865 40.3362 10.1474C40.33 10.0847 40.3268 10.0064 40.3268 9.91244C40.3268 9.81221 40.33 9.73391 40.3362 9.67753C40.3613 9.2077 40.4678 8.80052 40.6557 8.45598C40.8499 8.11144 41.1161 7.84834 41.4544 7.66667C41.7927 7.47874 42.1905 7.38478 42.6478 7.38478C43.1552 7.38478 43.5811 7.49127 43.9257 7.70426C44.2702 7.91098 44.5302 8.20227 44.7056 8.57813C44.881 8.94773 44.9687 9.37684 44.9687 9.86546V10.0628C44.9687 10.1254 44.9468 10.1787 44.9029 10.2225C44.8591 10.2664 44.8027 10.2883 44.7338 10.2883H41.6141C41.6141 10.2883 41.6141 10.2977 41.6141 10.3165C41.6141 10.3353 41.6141 10.3509 41.6141 10.3635C41.6204 10.5827 41.6611 10.7863 41.7363 10.9742C41.8177 11.1559 41.9336 11.3031 42.084 11.4159C42.2406 11.5286 42.4254 11.585 42.6384 11.585C42.8138 11.585 42.961 11.56 43.08 11.5098C43.199 11.4535 43.2961 11.3908 43.3713 11.3219C43.4465 11.253 43.4997 11.1966 43.531 11.1528C43.5874 11.0776 43.6313 11.0338 43.6626 11.0212C43.7002 11.0024 43.7534 10.993 43.8223 10.993H44.6304C44.6931 10.993 44.7432 11.0118 44.7808 11.0494C44.8246 11.087 44.8434 11.134 44.8371 11.1904C44.8309 11.2906 44.7776 11.4127 44.6774 11.5568C44.5834 11.7009 44.4456 11.8419 44.264 11.9797C44.0823 12.1175 43.8536 12.2334 43.578 12.3273C43.3086 12.415 42.9986 12.4589 42.6478 12.4589ZM41.6141 9.49899H43.6908V9.4708C43.6908 9.22649 43.6501 9.01351 43.5686 8.83184C43.4872 8.65017 43.3682 8.50609 43.2116 8.3996C43.0549 8.29311 42.867 8.23986 42.6478 8.23986C42.4285 8.23986 42.2406 8.29311 42.084 8.3996C41.9274 8.50609 41.8083 8.65017 41.7269 8.83184C41.6517 9.01351 41.6141 9.22649 41.6141 9.4708V9.49899ZM47.8172 12.4589C47.4414 12.4589 47.1188 12.415 46.8494 12.3273C46.5863 12.2396 46.3702 12.13 46.201 11.9985C46.0319 11.8669 45.9066 11.7354 45.8252 11.6038C45.7437 11.4723 45.6999 11.3626 45.6936 11.2749C45.6874 11.206 45.7062 11.1528 45.75 11.1152C45.8001 11.0713 45.8534 11.0494 45.9097 11.0494H46.6521C46.6771 11.0494 46.6991 11.0525 46.7178 11.0588C46.7366 11.0651 46.7617 11.0839 46.793 11.1152C46.8745 11.1841 46.959 11.2561 47.0467 11.3313C47.1407 11.4065 47.2503 11.4723 47.3756 11.5286C47.5009 11.5788 47.6575 11.6038 47.8454 11.6038C48.0897 11.6038 48.2933 11.5568 48.4562 11.4629C48.6253 11.3626 48.7099 11.2217 48.7099 11.04C48.7099 10.9085 48.6723 10.802 48.5971 10.7205C48.5282 10.6391 48.3967 10.5671 48.2025 10.5044C48.0083 10.4355 47.7327 10.3635 47.3756 10.2883C47.0248 10.2069 46.7335 10.1035 46.5017 9.97821C46.2699 9.85293 46.0977 9.69632 45.9849 9.50839C45.8722 9.32046 45.8158 9.10121 45.8158 8.85063C45.8158 8.60632 45.8878 8.37454 46.0319 8.15529C46.1822 7.92977 46.4015 7.74498 46.6897 7.6009C46.9841 7.45682 47.3474 7.38478 47.7797 7.38478C48.1179 7.38478 48.4124 7.42863 48.6629 7.51633C48.9135 7.59776 49.1202 7.70113 49.2831 7.82641C49.4522 7.9517 49.5807 8.08012 49.6684 8.21167C49.7561 8.33696 49.803 8.44658 49.8093 8.54055C49.8156 8.60946 49.7968 8.66583 49.7529 8.70969C49.7091 8.74727 49.659 8.76606 49.6026 8.76606H48.9072C48.8759 8.76606 48.8477 8.7598 48.8227 8.74727C48.7976 8.73474 48.7726 8.71908 48.7475 8.70029C48.6786 8.63765 48.6034 8.57187 48.522 8.50296C48.4405 8.43405 48.3403 8.37454 48.2213 8.32443C48.1085 8.26805 47.9582 8.23986 47.7703 8.23986C47.5322 8.23986 47.3505 8.29311 47.2253 8.3996C47.1 8.49983 47.0373 8.62825 47.0373 8.78486C47.0373 8.89135 47.0655 8.98532 47.1219 9.06675C47.1845 9.14193 47.3067 9.21397 47.4884 9.28287C47.67 9.35178 47.9457 9.42382 48.3153 9.49899C48.735 9.57416 49.067 9.68692 49.3113 9.83727C49.5619 9.98135 49.7373 10.1505 49.8375 10.3447C49.944 10.5326 49.9972 10.7425 49.9972 10.9742C49.9972 11.2561 49.9127 11.5098 49.7435 11.7354C49.5807 11.9609 49.3363 12.1394 49.0106 12.271C48.6911 12.3963 48.2933 12.4589 47.8172 12.4589ZM52.8841 12.3649C52.7776 12.3649 52.693 12.3367 52.6304 12.2804C52.5677 12.224 52.5239 12.1582 52.4988 12.083L50.5819 6.06927C50.5694 6.03794 50.5631 6.00975 50.5631 5.9847C50.5631 5.93458 50.5819 5.89073 50.6195 5.85315C50.6634 5.80929 50.7135 5.78737 50.7699 5.78737H51.935C52.0353 5.78737 52.1136 5.81556 52.17 5.87194C52.2263 5.92832 52.2608 5.98156 52.2733 6.03168L53.5982 10.3729L54.9325 6.03168C54.9513 5.98156 54.9858 5.92832 55.0359 5.87194C55.0923 5.81556 55.1706 5.78737 55.2708 5.78737H56.436C56.4923 5.78737 56.5393 5.80929 56.5769 5.85315C56.6208 5.89073 56.6427 5.93458 56.6427 5.9847C56.6427 6.00975 56.6364 6.03794 56.6239 6.06927L54.707 12.083C54.682 12.1582 54.6381 12.224 54.5755 12.2804C54.5191 12.3367 54.4345 12.3649 54.3218 12.3649H52.8841ZM57.7549 12.3649C57.686 12.3649 57.6296 12.343 57.5857 12.2992C57.5419 12.2553 57.5199 12.1989 57.5199 12.13V6.02228C57.5199 5.95337 57.5419 5.897 57.5857 5.85315C57.6296 5.80929 57.686 5.78737 57.7549 5.78737H60.3859C60.9058 5.78737 61.3569 5.86881 61.739 6.03168C62.1274 6.18829 62.4281 6.42633 62.641 6.74581C62.8603 7.0653 62.9699 7.46935 62.9699 7.95796C62.9699 8.44032 62.8603 8.8381 62.641 9.15132C62.4281 9.46454 62.1274 9.69632 61.739 9.84666C61.3569 9.99701 60.9058 10.0722 60.3859 10.0722H59.2677V12.13C59.2677 12.1989 59.2426 12.2553 59.1925 12.2992C59.1487 12.343 59.0923 12.3649 59.0234 12.3649H57.7549ZM59.2395 8.77546H60.3389C60.6083 8.77546 60.8213 8.70655 60.9779 8.56874C61.1407 8.43092 61.2222 8.22107 61.2222 7.93917C61.2222 7.70113 61.1533 7.50067 61.0154 7.33779C60.8776 7.17492 60.6521 7.09348 60.3389 7.09348H59.2395V8.77546ZM64.1048 12.3649C64.0359 12.3649 63.9796 12.343 63.9357 12.2992C63.8919 12.2553 63.8699 12.1989 63.8699 12.13V6.02228C63.8699 5.95337 63.8919 5.897 63.9357 5.85315C63.9796 5.80929 64.0359 5.78737 64.1048 5.78737H65.1009C65.2074 5.78737 65.2825 5.81243 65.3264 5.86254C65.3765 5.90639 65.4078 5.94085 65.4204 5.9659L67.7131 9.58356V6.02228C67.7131 5.95337 67.735 5.897 67.7789 5.85315C67.8227 5.80929 67.8791 5.78737 67.948 5.78737H69.0756C69.1445 5.78737 69.2009 5.80929 69.2447 5.85315C69.2886 5.897 69.3105 5.95337 69.3105 6.02228V12.13C69.3105 12.1927 69.2886 12.249 69.2447 12.2992C69.2009 12.343 69.1445 12.3649 69.0756 12.3649H68.0702C67.9699 12.3649 67.8948 12.3399 67.8447 12.2898C67.8008 12.2396 67.7726 12.2052 67.7601 12.1864L65.4673 8.70969V12.13C65.4673 12.1989 65.4454 12.2553 65.4016 12.2992C65.3577 12.343 65.3013 12.3649 65.2324 12.3649H64.1048Z" fill="#0B132A"/>
<path d="M15.1076 6.90339L15.0973 6.89316C15.0965 6.89259 15.0958 6.89182 15.0954 6.89094L8.69598 0.491333L2.2966 6.89077C2.29586 6.89152 2.29471 6.89299 2.29471 6.89299L2.28415 6.90322C1.30559 7.88727 0.684042 9.17018 0.518303 10.548C0.352563 11.9259 0.652147 13.3196 1.36943 14.5077C2.08671 15.6958 3.18052 16.61 4.477 17.1049C5.77346 17.5999 7.19818 17.6473 8.52467 17.2396C8.63629 17.2054 8.7556 17.2054 8.86723 17.2396C10.1936 17.6472 11.6182 17.5997 12.9146 17.1047C14.211 16.6097 15.3047 15.6955 16.022 14.5075C16.7392 13.3196 17.0388 11.9259 16.8731 10.5481C16.7075 9.17035 16.086 7.88744 15.1076 6.90339ZM4.57214 11.1234C4.54098 11.1546 4.51628 11.1916 4.49943 11.2322C4.48257 11.2729 4.4739 11.3165 4.47391 11.3606C4.48529 12.49 4.80449 13.595 5.39715 14.5565C5.41061 14.5784 5.41684 14.6039 5.41493 14.6294C5.41302 14.655 5.40308 14.6792 5.38652 14.6988C5.36997 14.7184 5.34765 14.7322 5.32276 14.7383C5.29787 14.7444 5.27169 14.7425 5.24796 14.7329C4.80241 14.5455 4.39765 14.273 4.05632 13.9309C3.35682 13.2312 2.96358 12.2825 2.96294 11.2932C2.9623 10.3039 3.35434 9.3547 4.05294 8.65421L8.69598 4.01161L13.3388 8.65421C14.0375 9.35462 14.4297 10.3038 14.429 11.2932C14.4284 12.2825 14.0351 13.2312 13.3356 13.9309C12.9942 14.273 12.5895 14.5455 12.144 14.7329C12.1202 14.7425 12.094 14.7444 12.0692 14.7383C12.0443 14.7322 12.022 14.7183 12.0054 14.6988C11.9888 14.6792 11.9788 14.655 11.9769 14.6293C11.975 14.6038 11.9812 14.5783 11.9947 14.5565C12.5875 13.595 12.9069 12.49 12.9184 11.3606C12.9184 11.3165 12.9097 11.2729 12.8927 11.2321C12.8758 11.1914 12.851 11.1545 12.8198 11.1233L10.6237 8.79397C10.6018 8.77571 10.5743 8.76571 10.5458 8.76571C10.5174 8.76571 10.4898 8.77571 10.4679 8.79397C10.4461 8.81215 10.4313 8.83751 10.4262 8.86553C10.4211 8.89354 10.426 8.92238 10.44 8.94716C11.2929 10.4906 10.5595 12.7076 9.33641 13.9309L9.32996 13.9373C9.16115 14.1043 8.93325 14.1979 8.69581 14.1978C8.45834 14.1978 8.2305 14.104 8.06181 13.9369L8.05587 13.9309C6.83233 12.7076 6.09928 10.4909 6.95233 8.9475C6.96636 8.92271 6.97125 8.89387 6.96614 8.86586C6.96104 8.83784 6.94628 8.81248 6.92442 8.7943C6.90257 8.77604 6.87501 8.76604 6.84654 8.76604C6.81808 8.76604 6.79051 8.77604 6.76865 8.7943L4.57214 11.1234Z" fill="#F53838"/>
</svg>
